<svg width="29" height="12" viewBox="0 0 29 12" fill="none" xmlns="http://www.w3.org/2000/svg">
  <path
    d="M22.6435 5.984C22.8408 5.984 23.0088 5.93333 23.1475 5.832C23.2915 5.73067 23.4328 5.608 23.5715 5.464C23.7155 5.32 23.8862 5.18133 24.0835 5.048C24.2862 4.90933 24.5422 4.8 24.8515 4.72C25.1608 4.63467 25.5528 4.61067 26.0275 4.648V6.48C25.7555 6.47467 25.5315 6.51467 25.3555 6.6C25.1795 6.68533 25.0168 6.792 24.8675 6.92C24.7235 7.04267 24.5608 7.17067 24.3795 7.304C24.2035 7.432 23.9768 7.54133 23.6995 7.632C23.4275 7.71733 23.0755 7.76 22.6435 7.76C22.2275 7.76 21.8808 7.704 21.6035 7.592C21.3262 7.47467 21.0915 7.33333 20.8995 7.168C20.7075 6.99733 20.5368 6.82933 20.3875 6.664C20.2435 6.49333 20.0968 6.352 19.9475 6.24C19.7982 6.12267 19.6302 6.064 19.4435 6.064C19.2462 6.064 19.0755 6.11733 18.9315 6.224C18.7875 6.33067 18.6408 6.464 18.4915 6.624C18.3422 6.784 18.1742 6.944 17.9875 7.104C17.7955 7.264 17.5608 7.39733 17.2835 7.504C17.0062 7.61067 16.6595 7.664 16.2435 7.664C15.8062 7.664 15.4462 7.61333 15.1635 7.512C14.8808 7.41067 14.6488 7.28267 14.4675 7.128C14.2808 6.97333 14.1182 6.82133 13.9795 6.672C13.8408 6.51733 13.6995 6.38933 13.5555 6.288C13.4115 6.18133 13.2408 6.128 13.0435 6.128C12.8408 6.128 12.6648 6.184 12.5155 6.296C12.3662 6.408 12.2195 6.544 12.0755 6.704C11.9262 6.864 11.7582 7.02667 11.5715 7.192C11.3848 7.352 11.1555 7.488 10.8835 7.6C10.6062 7.70667 10.2595 7.76 9.8435 7.76C9.4275 7.76 9.08083 7.704 8.8035 7.592C8.52617 7.47467 8.2915 7.33333 8.0995 7.168C7.9075 6.99733 7.7395 6.82933 7.5955 6.664C7.44617 6.49333 7.29683 6.352 7.1475 6.24C6.99817 6.12267 6.83017 6.064 6.6435 6.064C6.44617 6.064 6.2755 6.11733 6.1315 6.224C5.9875 6.33067 5.84083 6.464 5.6915 6.624C5.54217 6.784 5.37417 6.944 5.1875 7.104C4.9955 7.264 4.76083 7.39733 4.4835 7.504C4.20617 7.61067 3.8595 7.664 3.4435 7.664C3.05417 7.664 2.6595 7.56533 2.2595 7.368C1.8595 7.16533 1.4995 6.89867 1.1795 6.568C0.859499 6.232 0.627499 5.864 0.4835 5.464L2.0755 4.728C2.22483 5.05867 2.42483 5.352 2.6755 5.608C2.92083 5.85867 3.17683 5.984 3.4435 5.984C3.6355 5.984 3.80617 5.93067 3.9555 5.824C4.0995 5.71733 4.24617 5.584 4.3955 5.424C4.5395 5.264 4.7075 5.104 4.8995 4.944C5.0915 4.784 5.32617 4.65067 5.6035 4.544C5.88083 4.43733 6.2275 4.384 6.6435 4.384C7.0595 4.384 7.40617 4.43733 7.6835 4.544C7.96083 4.65067 8.1955 4.784 8.3875 4.944C8.57417 5.104 8.74217 5.264 8.8915 5.424C9.04083 5.584 9.1875 5.71733 9.3315 5.824C9.4755 5.93067 9.64617 5.984 9.8435 5.984C10.0302 5.984 10.1982 5.93067 10.3475 5.824C10.4915 5.71733 10.6382 5.584 10.7875 5.424C10.9315 5.264 11.0995 5.104 11.2915 4.944C11.4835 4.784 11.7208 4.65067 12.0035 4.544C12.2808 4.43733 12.6275 4.384 13.0435 4.384C13.4755 4.384 13.8355 4.43733 14.1235 4.544C14.4062 4.65067 14.6408 4.784 14.8275 4.944C15.0088 5.104 15.1688 5.264 15.3075 5.424C15.4462 5.584 15.5875 5.71733 15.7315 5.824C15.8702 5.93067 16.0408 5.984 16.2435 5.984C16.4355 5.984 16.6062 5.93067 16.7555 5.824C16.8995 5.71733 17.0462 5.584 17.1955 5.424C17.3395 5.264 17.5075 5.104 17.6995 4.944C17.8915 4.784 18.1262 4.65067 18.4035 4.544C18.6808 4.43733 19.0275 4.384 19.4435 4.384C19.8595 4.384 20.2062 4.43733 20.4835 4.544C20.7608 4.65067 20.9928 4.784 21.1795 4.944C21.3715 5.104 21.5422 5.264 21.6915 5.424C21.8408 5.584 21.9875 5.71733 22.1315 5.824C22.2755 5.93067 22.4462 5.984 22.6435 5.984ZM23.4275 0.792L28.0915 5.992L23.4275 11.192L22.0035 9.968L23.5315 8.296C23.8195 7.98667 24.0862 7.71733 24.3315 7.488C24.5768 7.25867 24.8435 7.05333 25.1315 6.872V5.112C24.8435 4.93067 24.5768 4.72533 24.3315 4.496C24.0862 4.26667 23.8195 3.99733 23.5315 3.688L22.0035 2.016L23.4275 0.792Z"
    fill="white" />
</svg>