<svg width="21" height="20" viewBox="0 0 21 20" fill="none" xmlns="http://www.w3.org/2000/svg">
<g clip-path="url(#clip0_123_366)">
<path d="M10.8215 0.3125C5.35161 0.3125 1.11255 4.31016 1.11255 9.70977C1.11255 12.534 2.2731 14.9746 4.16216 16.6605C4.48833 16.9539 4.42114 17.1238 4.47661 18.9352C4.48098 19.062 4.51632 19.1859 4.57956 19.296C4.6428 19.4061 4.73201 19.499 4.83941 19.5667C4.94681 19.6344 5.06914 19.6748 5.19574 19.6843C5.32233 19.6939 5.44933 19.6723 5.56567 19.6215C7.63247 18.7113 7.65903 18.6395 8.00942 18.7348C13.9973 20.3828 20.4875 16.5508 20.4875 9.70977C20.4875 4.31016 16.2918 0.3125 10.8215 0.3125ZM16.6512 7.54414L13.7997 12.0586C13.692 12.2284 13.5504 12.374 13.3838 12.4865C13.2172 12.599 13.0291 12.6759 12.8314 12.7123C12.6337 12.7487 12.4306 12.7439 12.2349 12.6981C12.0391 12.6524 11.8549 12.5667 11.6938 12.4465L9.42505 10.7484C9.32363 10.6724 9.20027 10.6313 9.07349 10.6313C8.94671 10.6313 8.82335 10.6724 8.72192 10.7484L5.6606 13.0703C5.252 13.3801 4.71685 12.8906 4.99224 12.4582L7.8438 7.94375C7.95144 7.77395 8.09301 7.62822 8.25962 7.5157C8.42623 7.40318 8.61429 7.3263 8.81201 7.28988C9.00973 7.25346 9.21285 7.25829 9.40861 7.30406C9.60438 7.34983 9.78858 7.43555 9.94966 7.55586L12.2176 9.25352C12.3191 9.32958 12.4424 9.3707 12.5692 9.3707C12.696 9.3707 12.8193 9.32958 12.9208 9.25352L15.9836 6.93398C16.3915 6.62227 16.9266 7.11133 16.6512 7.54414Z" fill="#F0F0F0"/>
</g>
<defs>
<clipPath id="clip0_123_366">
<rect width="20" height="20" fill="white" transform="translate(0.800049)"/>
</clipPath>
</defs>
</svg>
