<svg width="20" height="20" viewBox="0 0 20 20" fill="none" xmlns="http://www.w3.org/2000/svg">
<g clip-path="url(#clip0_123_362)">
<path d="M6.42194 15.5234C6.42194 15.6016 6.3329 15.6641 6.22064 15.6641C6.0929 15.6758 6.00387 15.6133 6.00387 15.5234C6.00387 15.4453 6.0929 15.3828 6.20516 15.3828C6.32129 15.3711 6.42194 15.4336 6.42194 15.5234ZM5.21806 15.3477C5.19097 15.4258 5.26839 15.5156 5.38452 15.5391C5.48516 15.5781 5.60129 15.5391 5.62452 15.4609C5.64774 15.3828 5.57419 15.293 5.45806 15.2578C5.35742 15.2305 5.24516 15.2695 5.21806 15.3477ZM6.92903 15.2812C6.81677 15.3086 6.73935 15.3828 6.75097 15.4727C6.76258 15.5508 6.86323 15.6016 6.97935 15.5742C7.09161 15.5469 7.16903 15.4727 7.15742 15.3945C7.14581 15.3203 7.04129 15.2695 6.92903 15.2812ZM9.47613 0.3125C4.1071 0.3125 0 4.42578 0 9.84375C0 14.1758 2.70194 17.8828 6.56129 19.1875C7.05677 19.2773 7.23097 18.9688 7.23097 18.7148C7.23097 18.4727 7.21936 17.1367 7.21936 16.3164C7.21936 16.3164 4.50968 16.9023 3.94065 15.1523C3.94065 15.1523 3.49935 14.0156 2.86452 13.7227C2.86452 13.7227 1.97806 13.1094 2.92645 13.1211C2.92645 13.1211 3.89032 13.1992 4.42065 14.1289C5.26839 15.6367 6.68903 15.2031 7.24258 14.9453C7.33161 14.3203 7.58323 13.8867 7.86194 13.6289C5.69806 13.3867 3.51484 13.0703 3.51484 9.3125C3.51484 8.23828 3.80903 7.69922 4.42839 7.01172C4.32774 6.75781 3.99871 5.71094 4.52903 4.35938C5.33806 4.10547 7.2 5.41406 7.2 5.41406C7.97419 5.19531 8.80645 5.08203 9.63097 5.08203C10.4555 5.08203 11.2877 5.19531 12.0619 5.41406C12.0619 5.41406 13.9239 4.10156 14.7329 4.35938C15.2632 5.71484 14.9342 6.75781 14.8335 7.01172C15.4529 7.70312 15.8323 8.24219 15.8323 9.3125C15.8323 13.082 13.5523 13.3828 11.3884 13.6289C11.7445 13.9375 12.0465 14.5234 12.0465 15.4414C12.0465 16.7578 12.0348 18.3867 12.0348 18.707C12.0348 18.9609 12.2129 19.2695 12.7045 19.1797C16.5755 17.8828 19.2 14.1758 19.2 9.84375C19.2 4.42578 14.8452 0.3125 9.47613 0.3125ZM3.76258 13.7852C3.71226 13.8242 3.72387 13.9141 3.78968 13.9883C3.85161 14.0508 3.94065 14.0781 3.99097 14.0273C4.04129 13.9883 4.02968 13.8984 3.96387 13.8242C3.90194 13.7617 3.8129 13.7344 3.76258 13.7852ZM3.34452 13.4688C3.31742 13.5195 3.35613 13.582 3.43355 13.6211C3.49548 13.6602 3.5729 13.6484 3.6 13.5938C3.6271 13.543 3.58839 13.4805 3.51097 13.4414C3.43355 13.418 3.37161 13.4297 3.34452 13.4688ZM4.59871 14.8594C4.53677 14.9102 4.56 15.0273 4.64903 15.1016C4.73806 15.1914 4.85032 15.2031 4.90065 15.1406C4.95097 15.0898 4.92774 14.9727 4.85032 14.8984C4.76516 14.8086 4.64903 14.7969 4.59871 14.8594ZM4.15742 14.2852C4.09548 14.3242 4.09548 14.4258 4.15742 14.5156C4.21936 14.6055 4.32387 14.6445 4.37419 14.6055C4.43613 14.5547 4.43613 14.4531 4.37419 14.3633C4.32 14.2734 4.21936 14.2344 4.15742 14.2852Z" fill="#F0F0F0"/>
</g>
<defs>
<clipPath id="clip0_123_362">
<rect width="19.2" height="20" fill="white"/>
</clipPath>
</defs>
</svg>
