<svg width="18" height="20" viewBox="0 0 18 20" fill="none" xmlns="http://www.w3.org/2000/svg">
<g clip-path="url(#clip0_123_364)">
<path d="M16.5428 1.25H1.45317C0.761737 1.25 0.199951 1.81641 0.199951 2.51172V17.4883C0.199951 18.1836 0.761737 18.75 1.45317 18.75H16.5428C17.2342 18.75 17.8 18.1836 17.8 17.4883V2.51172C17.8 1.81641 17.2342 1.25 16.5428 1.25ZM5.51924 16.25H2.91067V7.89844H5.52317V16.25H5.51924ZM4.21495 6.75781C3.37817 6.75781 2.70245 6.08203 2.70245 5.25391C2.70245 4.42578 3.37817 3.75 4.21495 3.75C5.04781 3.75 5.72745 4.42578 5.72745 5.25391C5.72745 6.08594 5.05174 6.75781 4.21495 6.75781ZM15.2975 16.25H12.6889V12.1875C12.6889 11.2188 12.6692 9.97266 11.3335 9.97266C9.97424 9.97266 9.76602 11.0273 9.76602 12.1172V16.25H7.15745V7.89844H9.65995V9.03906H9.69531C10.045 8.38281 10.8975 7.69141 12.1664 7.69141C14.8064 7.69141 15.2975 9.42188 15.2975 11.6719V16.25Z" fill="#F0F0F0"/>
</g>
<defs>
<clipPath id="clip0_123_364">
<rect width="17.6" height="20" fill="white" transform="translate(0.199951)"/>
</clipPath>
</defs>
</svg>
