<svg width="21" height="20" viewBox="0 0 21 20" fill="none" xmlns="http://www.w3.org/2000/svg">
<g clip-path="url(#clip0_123_368)">
<path d="M18.7442 5.92613C18.7569 6.10379 18.7569 6.28148 18.7569 6.45914C18.7569 11.8779 14.6325 18.1216 7.09446 18.1216C4.77212 18.1216 2.61478 17.4489 0.800049 16.2815C1.13001 16.3195 1.44724 16.3322 1.78989 16.3322C3.7061 16.3322 5.47009 15.685 6.87872 14.581C5.07669 14.5429 3.56653 13.3627 3.04622 11.7383C3.30005 11.7764 3.55384 11.8018 3.82036 11.8018C4.18837 11.8018 4.55642 11.751 4.89903 11.6622C3.02087 11.2814 1.6122 9.63172 1.6122 7.63934V7.58859C2.15786 7.89316 2.79243 8.08352 3.46497 8.10887C2.36091 7.37281 1.63759 6.11648 1.63759 4.69516C1.63759 3.93375 1.8406 3.23578 2.19595 2.62664C4.21372 5.11395 7.24673 6.73828 10.6477 6.91598C10.5843 6.61141 10.5462 6.29418 10.5462 5.97691C10.5462 3.71801 12.3736 1.87793 14.6452 1.87793C15.8254 1.87793 16.8913 2.37285 17.6401 3.17234C18.5665 2.99469 19.4548 2.65203 20.2416 2.1825C19.937 3.1343 19.2898 3.93379 18.4396 4.44137C19.2645 4.35258 20.064 4.1241 20.8 3.80687C20.2417 4.61902 19.5437 5.34234 18.7442 5.92613Z" fill="#F0F0F0"/>
</g>
<defs>
<clipPath id="clip0_123_368">
<rect width="20" height="20" fill="white" transform="translate(0.800049)"/>
</clipPath>
</defs>
</svg>
